<?xml version="1.0" encoding="UTF-8" standalone="no"?>
<svg
   height="384"
   id="Layer_1"
   version="1.1"
   viewBox="0 0 288 384"
   width="288"
   xml:space="preserve"
   sodipodi:docname="trash.svg"
   inkscape:version="1.1 (c68e22c387, 2021-05-23)"
   xmlns:inkscape="http://www.inkscape.org/namespaces/inkscape"
   xmlns:sodipodi="http://sodipodi.sourceforge.net/DTD/sodipodi-0.dtd"
   xmlns="http://www.w3.org/2000/svg"
   xmlns:svg="http://www.w3.org/2000/svg"><defs
     id="defs17" /><sodipodi:namedview
     id="namedview15"
     pagecolor="#ffffff"
     bordercolor="#999999"
     borderopacity="1"
     inkscape:pageshadow="0"
     inkscape:pageopacity="0"
     inkscape:pagecheckerboard="0"
     showgrid="false"
     inkscape:zoom="1.5273438"
     inkscape:cx="144.04092"
     inkscape:cy="191.83632"
     inkscape:window-width="1920"
     inkscape:window-height="986"
     inkscape:window-x="-11"
     inkscape:window-y="-11"
     inkscape:window-maximized="1"
     inkscape:current-layer="Layer_1" /><g
     id="g12"
     transform="translate(-112,-64)"><path
       d="m 400,113.3 h -80 v -20 C 320,77.1 306.9,64 290.7,64 H 221.2 C 205.1,64 192,77.1 192,93.3 v 20 H 112 V 128 h 21.1 l 23.6,290.7 c 0,16.2 13.1,29.3 29.3,29.3 h 141 c 16.2,0 29.3,-13.1 29.3,-29.3 L 379.6,128 H 400 Z m -193.4,-20 c 0,-8.1 6.6,-14.7 14.6,-14.7 h 69.5 c 8.1,0 14.6,6.6 14.6,14.7 v 20 h -98.7 z m 135,324.6 v 0.4 0.4 c 0,8.1 -6.6,14.7 -14.6,14.7 H 186 c -8.1,0 -14.6,-6.6 -14.6,-14.7 v -0.4 -0.4 L 147.7,128 h 217.2 z"
       id="path2" /><g
       id="g10"><rect
         height="241"
         width="14"
         x="249"
         y="160"
         id="rect4" /><polygon
         points="294.7,401 309.3,401 320,160 305.4,160 "
         id="polygon6" /><polygon
         points="202.7,401 217.3,401 206.5,160 192,160 "
         id="polygon8" /></g></g></svg>
